<?xml version="1.0" standalone="no"?><!DOCTYPE svg PUBLIC "-//W3C//DTD SVG 1.1//EN" "http://www.w3.org/Graphics/SVG/1.1/DTD/svg11.dtd"><svg t="1547018414568" class="icon" style="" viewBox="0 0 1024 1024" version="1.1" xmlns="http://www.w3.org/2000/svg" p-id="669" xmlns:xlink="http://www.w3.org/1999/xlink" width="48" height="48"><defs><style type="text/css"></style></defs><path d="M127.494999 1024.000634c-63.642354 0-115.42261-54.708129-115.42261-142.881206L12.087252 75.242875c0-34.911545 30.685697-63.749362 68.403244-63.749362l873.482188 0c37.715565 0 68.401262 24.182945 68.401262 63.749362 0 25.550277 0 805.876554 0 805.876554 0 88.173076-51.775302 142.881206-115.41072 142.881206L127.494999 1024.000634zM86.782203 902.050502c0 26.048659 18.260814 47.2423 40.712796 47.2423l779.469218 0c22.442074 0 40.702888-21.193641 40.702888-47.2423l0-86.820607L86.782203 815.229895 86.782203 902.050502zM947.667104 738.049967 947.667104 86.218188 86.797065 86.218188l0 651.831779L947.667104 738.049967 947.667104 738.049967zM518.360629 517.861018c-171.278108 0-272.568651-145.726841-291.139592-315.85758-1.171149-10.752379 2.346262-21.596905 9.632753-29.744418 7.411334-8.243623 18.000228-12.984697 29.065706-12.984697 19.687594 0 36.122327 14.685935 38.247636 34.158521 14.223222 130.862558 82.446137 246.978742 214.192506 246.978742 131.788975 0 198.871456-116.116184 213.099632-246.978742 2.125309-19.471596 18.55806-34.158521 38.250608-34.158521 11.062506 0 21.644464 4.741074 29.040936 12.984697 7.307298 8.146522 10.819755 18.99402 9.650587 29.744418C789.799745 372.134177 689.6427 517.861018 518.360629 517.861018z" p-id="670"></path></svg>